<svg width="32" height="32" viewBox="0 0 32 32" fill="none" xmlns="http://www.w3.org/2000/svg">
<g id="Group 1">
<path id="Vector" d="M31.9999 16.2592C31.9999 14.9634 31.8908 14.0177 31.6547 13.0371H16.3018V18.8859H25.3136C25.1319 20.3394 24.1508 22.5284 21.9705 23.9993L21.9399 24.1951L26.7942 27.8196L27.1305 27.8519C30.2192 25.1026 31.9999 21.0574 31.9999 16.2592Z" fill="#4285F4"/>
<path id="Vector_2" d="M16.3746 31.9999C20.776 31.9999 24.4711 30.5553 27.17 28.0635L22.0258 24.0909C20.6493 25.048 18.8017 25.7161 16.3746 25.7161C12.0637 25.7161 8.40482 22.8812 7.10055 18.9629L6.90937 18.9791L1.87733 22.8613L1.81152 23.0437C4.49225 28.3523 9.99867 31.9999 16.3746 31.9999Z" fill="#34A853"/>
<path id="Vector_3" d="M7.24528 19.1546C6.89049 18.1743 6.68516 17.1238 6.68516 16.0384C6.68516 14.9529 6.89049 13.9025 7.22662 12.9222L7.21722 12.7134L1.96448 8.88892L1.79262 8.96556C0.653583 11.1014 0 13.4999 0 16.0384C0 18.5769 0.653583 20.9753 1.79262 23.1111L7.24528 19.1546Z" fill="#FBBC05"/>
<path id="Vector_4" d="M16.3122 5.99812C19.3602 5.99812 21.4163 7.25635 22.5887 8.30782L27.1698 4.03325C24.3563 1.53402 20.6949 0 16.3122 0C9.9635 0 4.48057 3.48166 1.81128 8.54904L7.05971 12.4444C8.37645 8.70422 12.0197 5.99812 16.3122 5.99812Z" fill="#EB4335"/>
</g>
</svg>
