<svg width="72" height="72" viewBox="0 0 72 72" fill="none" xmlns="http://www.w3.org/2000/svg">
<rect width="72" height="72" rx="12" fill="#E8F1FD"/>
<path fill-rule="evenodd" clip-rule="evenodd" d="M52.6607 29.9585H45.6029C42.3185 29.9643 39.6578 32.5586 39.6518 35.7609C39.6474 38.9705 42.3111 41.5763 45.6029 41.5807H52.6666V42.0906C52.6666 47.6893 49.2726 51 43.5289 51H28.4726C22.7274 51 19.3333 47.6893 19.3333 42.0906V29.8964C19.3333 24.2977 22.7274 21 28.4726 21H43.5229C49.2666 21 52.6607 24.2977 52.6607 29.8964V29.9585ZM27.2326 29.9455H36.6326H36.6385H36.6504C37.3541 29.9427 37.9229 29.3836 37.92 28.6961C37.917 28.01 37.3422 27.4553 36.6385 27.4582H27.2326C26.5333 27.4611 25.9659 28.0143 25.9629 28.6975C25.96 29.3836 26.5289 29.9427 27.2326 29.9455Z" fill="#00AFB9"/>
<path opacity="0.4" d="M42.729 36.4944C43.0775 38.0798 44.4674 39.1951 46.0543 39.1661H51.4708C52.1311 39.1661 52.6666 38.6193 52.6666 37.9434V33.7242C52.6652 33.0497 52.1311 32.5015 51.4708 32.5H45.9268C44.1217 32.5058 42.6638 34.0041 42.6666 35.8505C42.6666 36.0666 42.6879 36.2827 42.729 36.4944Z" fill="#45A0FE"/>
<ellipse cx="46" cy="35.8333" rx="1.66667" ry="1.66667" fill="#45A0FE"/>
</svg>
