<svg width="24" height="24" viewBox="0 0 24 24" fill="none" xmlns="http://www.w3.org/2000/svg">
<g id="layers">
<path id="Union" d="M14.0354 1.38075C12.7206 0.873083 11.2794 0.873082 9.96457 1.38075L1.56824 4.62266C-0.522738 5.43 -0.522754 8.56999 1.56824 9.37734L9.96457 12.6192C11.2794 13.1269 12.7206 13.1269 14.0354 12.6192L22.4318 9.37734C24.5227 8.57 24.5228 5.43001 22.4318 4.62266L14.0354 1.38075Z" fill="#737373"/>
<path id="Vector 667 (Stroke)" fill-rule="evenodd" clip-rule="evenodd" d="M0.0696675 12.7957C0.291686 12.1733 0.977867 11.8481 1.60229 12.0694L11.196 15.4696C11.7161 15.6539 12.2839 15.6539 12.804 15.4696L22.3977 12.0694C23.0221 11.8481 23.7083 12.1733 23.9303 12.7957C24.1524 13.4181 23.8261 14.1021 23.2017 14.3234L13.608 17.7235C12.5679 18.0922 11.4321 18.0922 10.392 17.7235L0.798294 14.3234C0.173866 14.1021 -0.152351 13.4181 0.0696675 12.7957Z" fill="#D4D4D4"/>
<path id="Vector 669 (Stroke)" fill-rule="evenodd" clip-rule="evenodd" d="M0.0696675 16.9283C0.291686 16.2022 0.977867 15.8228 1.60229 16.081L11.196 20.0478C11.7161 20.2628 12.2839 20.2628 12.804 20.0478L22.3977 16.081C23.0221 15.8228 23.7083 16.2022 23.9303 16.9283C24.1524 17.6545 23.8261 18.4525 23.2017 18.7107L13.608 22.6775C12.5679 23.1075 11.4321 23.1075 10.392 22.6775L0.798294 18.7107C0.173866 18.4525 -0.152351 17.6545 0.0696675 16.9283Z" fill="#A3A3A3"/>
</g>
</svg>
